<svg height="229.28125" version="1.1" width="108.234375" xmlns="http://www.w3.org/2000/svg" xmlns:xlink="http://www.w3.org/1999/xlink" viewBox="0 0 108.234375 229.28125" preserveAspectRatio="xMidYMid meet" style="overflow: hidden; position: relative; top: -0.79998779296875px; color: rgb(51, 51, 51);"><desc>Created with Raphaël 2.2.0</desc><defs><path stroke-linecap="round" d="M5,0 0,2.5 5,5z" id="raphael-marker-block"></path><marker id="raphael-marker-endblock33-obj7edau" markerHeight="3" markerWidth="3" orient="auto" refX="1.5" refY="1.5"><use href="#raphael-marker-block" transform="rotate(180 1.5 1.5) scale(0.6,0.6)" stroke-width="1.6667" fill="currentColor" stroke="none"></use></marker><marker id="raphael-marker-endblock33-obj3ysvs" markerHeight="3" markerWidth="3" orient="auto" refX="1.5" refY="1.5"><use href="#raphael-marker-block" transform="rotate(180 1.5 1.5) scale(0.6,0.6)" stroke-width="1.6667" fill="currentColor" stroke="none"></use></marker></defs><rect x="0" y="0" width="87.234375" height="36.09375" rx="20" ry="20" fill="none" stroke="currentColor" stroke-width="3" class="flowchart" id="st" transform="matrix(1,0,0,1,12,6)" style=""></rect><text x="10" y="18.046875" text-anchor="start" font-family="&quot;Arial&quot;" font-size="14px" stroke="none" fill="currentColor" id="stt" class="flowchartt" transform="matrix(1,0,0,1,12,6)" stroke-width="1" style="text-anchor: start; font-family: Arial; font-size: 14px;"><tspan dy="4.9921875">StartEvent</tspan></text><rect x="0" y="0" width="99.234375" height="36.09375" rx="0" ry="0" fill="none" stroke="currentColor" stroke-width="3" class="flowchart" id="op" transform="matrix(1,0,0,1,6,98.0938)" style=""></rect><text x="10" y="18.046875" text-anchor="start" font-family="&quot;Arial&quot;" font-size="14px" stroke="none" fill="currentColor" id="opt" class="flowchartt" transform="matrix(1,0,0,1,6,98.0938)" stroke-width="1" style="text-anchor: start; font-family: Arial; font-size: 14px;"><tspan dy="4.9921875">ServiceTask</tspan></text><rect x="0" y="0" width="82.453125" height="36.09375" rx="20" ry="20" fill="none" stroke="currentColor" stroke-width="3" class="flowchart" id="e" transform="matrix(1,0,0,1,14.3906,190.1875)" style=""></rect><text x="10" y="18.046875" text-anchor="start" font-family="&quot;Arial&quot;" font-size="14px" stroke="none" fill="currentColor" id="et" class="flowchartt" transform="matrix(1,0,0,1,14.3906,190.1875)" stroke-width="1" style="text-anchor: start; font-family: Arial; font-size: 14px;"><tspan dy="4.9921875">EndEvent</tspan></text><path fill="none" stroke="currentColor" d="M55.6171875,42.09375C55.6171875,42.09375,55.6171875,80.29452085494995,55.6171875,93.59391031763516" stroke-width="3" marker-end="url(#raphael-marker-endblock33-obj7edau)" style=""></path><path fill="none" stroke="currentColor" d="M55.6171875,134.1875C55.6171875,134.1875,55.6171875,172.38827085494995,55.6171875,185.68766031763516" stroke-width="3" marker-end="url(#raphael-marker-endblock33-obj3ysvs)" style=""></path></svg>